:FULLY-SPECIFIED
:FORCE-ALL-JOINTS-BE-3DOF
:DEGREES
2956
root -5.94803 13.1466 -28.7548 1243.64 -67.6315 -160.397
lfemur -68.2771 41.6287 -6.99544
ltibia 77.2946 0 0
lfoot -5.07715 -3.12307 0
ltoes -35.8571 0 0
rfemur -35.1111 -18.1221 23.1101
rtibia 91.2582 0 0
rfoot -40.4232 -31.4746 0
rtoes -12.3181 0 0
lowerback 16.6294 5.22999 0.945104
upperback -4.24245 7.43363 1.44794
thorax -14.203 3.41831 -1.02536
lowerneck -2.98298 9.55021 1.55489
upperneck 7.42785 12.5735 1.04225
head 2.91903 6.30782 0.50985
lclavicle 2.47931e-14 -3.57814e-15 0
lhumerus 5.88881 15.1856 81.3566
lradius 90.2736 0 0
lwrist -16.934 0 0
lhand -39.2743 390.641 0
lfingers 7.12502 0 0
lthumb -12.2681 -659.74 0
rclavicle 2.47931e-14 -3.57814e-15 0
rhumerus -52.2721 49.5607 -104.736
rradius 110.944 0 0
rwrist -78.8436 0 0
rhand 3.3502 -384.966 0
rfingers 7.12502 0 0
rthumb 28.7916 307.268 0
2957
root -5.93886 13.1468 -28.7559 1243.77 -67.695 -160.488
lfemur -68.3128 41.4064 -7.03259
ltibia 77.2176 0 0
lfoot -4.90211 -3.02499 0
ltoes -35.7995 0 0
rfemur -35.2415 -18.0823 23.144
rtibia 91.3187 0 0
rfoot -40.3904 -31.5843 0
rtoes -12.1955 0 0
lowerback 16.6667 5.2112 0.897443
upperback -4.21898 7.39771 1.44599
thorax -14.2045 3.40557 -0.993832
lowerneck -2.99053 9.55248 1.52308
upperneck 7.31239 12.5861 0.970932
head 2.88366 6.31133 0.489097
lclavicle 1.72733e-14 -4.63832e-15 0
lhumerus 5.91232 15.2921 81.2019
lradius 90.2024 0 0
lwrist -16.7771 0 0
lhand -39.1982 390.626 0
lfingers 7.12502 0 0
lthumb -12.1947 -659.751 0
rclavicle 1.72733e-14 -4.63832e-15 0
rhumerus -51.8073 49.4689 -104.269
rradius 110.793 0 0
rwrist -78.5753 0 0
rhand 3.05294 -384.941 0
rfingers 7.12502 0 0
rthumb 28.508 307.242 0
2958
root -5.92969 13.1469 -28.7569 1243.91 -67.7585 -160.58
lfemur -68.3486 41.1841 -7.06975
ltibia 77.1405 0 0
lfoot -4.72707 -2.9269 0
ltoes -35.742 0 0
rfemur -35.372 -18.0425 23.1779
rtibia 91.3791 0 0
rfoot -40.3575 -31.694 0
rtoes -12.0728 0 0
lowerback 16.7041 5.1924 0.849781
upperback -4.19551 7.36178 1.44403
thorax -14.2059 3.39282 -0.962308
lowerneck -2.99808 9.55474 1.49127
upperneck 7.19693 12.5987 0.899613
head 2.84829 6.31484 0.468343
lclavicle 9.75348e-15 -5.6985e-15 0
lhumerus 5.93583 15.3986 81.0472
lradius 90.1312 0 0
lwrist -16.6203 0 0
lhand -39.1221 390.611 0
lfingers 7.12502 0 0
lthumb -12.1214 -659.761 0
rclavicle 9.75348e-15 -5.6985e-15 0
rhumerus -51.3426 49.3771 -103.801
rradius 110.643 0 0
rwrist -78.307 0 0
rhand 2.75569 -384.915 0
rfingers 7.12502 0 0
rthumb 28.2244 307.216 0
2959
root -5.92052 13.1471 -28.758 1244.04 -67.8221 -160.671
lfemur -68.3843 40.9618 -7.1069
ltibia 77.0634 0 0
lfoot -4.55203 -2.82882 0
ltoes -35.6845 0 0
rfemur -35.5024 -18.0027 23.2117
rtibia 91.4396 0 0
rfoot -40.3247 -31.8037 0
rtoes -11.9502 0 0
lowerback 16.7414 5.17361 0.802119
upperback -4.17204 7.32586 1.44208
thorax -14.2073 3.38008 -0.930785
lowerneck -3.00563 9.557 1.45946
upperneck 7.08147 12.6113 0.828295
head 2.81292 6.31835 0.44759
lclavicle 2.23369e-15 -6.75868e-15 0
lhumerus 5.95934 15.505 80.8925
lradius 90.06 0 0
lwrist -16.4634 0 0
lhand -39.0461 390.597 0
lfingers 7.12502 0 0
lthumb -12.0481 -659.771 0
rclavicle 2.23369e-15 -6.75868e-15 0
rhumerus -50.8778 49.2852 -103.333
rradius 110.492 0 0
rwrist -78.0387 0 0
rhand 2.45843 -384.89 0
rfingers 7.12502 0 0
rthumb 27.9409 307.19 0
2960
root -5.91135 13.1472 -28.759 1244.17 -67.8856 -160.762
lfemur -68.4201 40.7395 -7.14406
ltibia 76.9863 0 0
lfoot -4.37698 -2.73073 0
ltoes -35.627 0 0
rfemur -35.6328 -17.9629 23.2456
rtibia 91.5001 0 0
rfoot -40.2918 -31.9134 0
rtoes -11.8275 0 0
lowerback 16.7788 5.15481 0.754457
upperback -4.14857 7.28994 1.44012
thorax -14.2087 3.36733 -0.899261
lowerneck -3.01319 9.55926 1.42766
upperneck 6.96602 12.6239 0.756976
head 2.77756 6.32187 0.426836
lclavicle -5.28611e-15 -7.81887e-15 0
lhumerus 5.98285 15.6115 80.7379
lradius 89.9889 0 0
lwrist -16.3065 0 0
lhand -38.97 390.582 0
lfingers 7.12502 0 0
lthumb -11.9748 -659.781 0
rclavicle -5.28611e-15 -7.81887e-15 0
rhumerus -50.4131 49.1934 -102.865
rradius 110.341 0 0
rwrist -77.7704 0 0
rhand 2.16118 -384.864 0
rfingers 7.12502 0 0
rthumb 27.6573 307.163 0
2961
root -5.90218 13.1474 -28.7601 1244.31 -67.9492 -160.854
lfemur -68.4558 40.5172 -7.18121
ltibia 76.9092 0 0
lfoot -4.20194 -2.63265 0
ltoes -35.5695 0 0
rfemur -35.7633 -17.9231 23.2795
rtibia 91.5605 0 0
rfoot -40.259 -32.0231 0
rtoes -11.7049 0 0
lowerback 16.8161 5.13602 0.706796
upperback -4.1251 7.25401 1.43817
thorax -14.2102 3.35459 -0.867738
lowerneck -3.02074 9.56152 1.39585
upperneck 6.85056 12.6365 0.685658
head 2.74219 6.32538 0.406083
lclavicle -1.28059e-14 -8.87905e-15 0
lhumerus 6.00636 15.7179 80.5832
lradius 89.9177 0 0
lwrist -16.1497 0 0
lhand -38.894 390.568 0
lfingers 7.12502 0 0
lthumb -11.9014 -659.791 0
rclavicle -1.28059e-14 -8.87905e-15 0
rhumerus -49.9483 49.1016 -102.398
rradius 110.191 0 0
rwrist -77.5021 0 0
rhand 1.86392 -384.839 0
rfingers 7.12502 0 0
rthumb 27.3737 307.137 0
2962
root -5.89301 13.1475 -28.7611 1244.44 -68.0127 -160.945
lfemur -68.4916 40.2949 -7.21837
ltibia 76.8321 0 0
lfoot -4.0269 -2.53456 0
ltoes -35.512 0 0
rfemur -35.8937 -17.8833 23.3134
rtibia 91.621 0 0
rfoot -40.2261 -32.1328 0
rtoes -11.5822 0 0
lowerback 16.8535 5.11722 0.659134
upperback -4.10163 7.21809 1.43621
thorax -14.2116 3.34184 -0.836214
lowerneck -3.02829 9.56378 1.36404
upperneck 6.7351 12.6491 0.614339
head 2.70682 6.32889 0.385329
lclavicle -2.03257e-14 -9.93923e-15 0
lhumerus 6.02987 15.8244 80.4285
lradius 89.8465 0 0
lwrist -15.9928 0 0
lhand -38.8179 390.553 0
lfingers 7.12502 0 0
lthumb -11.8281 -659.801 0
rclavicle -2.03257e-14 -9.93923e-15 0
rhumerus -49.4836 49.0098 -101.93
rradius 110.04 0 0
rwrist -77.2338 0 0
rhand 1.56667 -384.813 0
rfingers 7.12502 0 0
rthumb 27.0901 307.111 0
2963
root -5.82981 13.1977 -28.8211 1242.56 -68.7266 -158.902
lfemur -68.1212 38.984 -6.88552
ltibia 75.3833 0 0
lfoot -3.35568 -2.16334 0
ltoes -35.3657 0 0
rfemur -35.9422 -17.4968 23.7436
rtibia 91.1032 0 0
rfoot -40.0094 -32.348 0
rtoes -11.1925 0 0
lowerback 16.8479 5.13933 0.67261
upperback -4.04136 7.24087 1.37966
thorax -14.1274 3.35112 -0.907425
lowerneck -2.94681 9.28861 1.16952
upperneck 6.45357 12.2887 0.649165
head 2.59518 6.14847 0.409299
lclavicle -2.05127e-14 -8.63293e-15 0
lhumerus 6.24296 15.6492 80.3313
lradius 89.6974 0 0
lwrist -15.3583 0 0
lhand -38.4832 390.593 0
lfingers 7.12502 0 0
lthumb -11.5051 -659.747 0
rclavicle -2.05127e-14 -8.63293e-15 0
rhumerus -47.4325 47.6161 -100.545
rradius 109.582 0 0
rwrist -76.9106 0 0
rhand 0.868238 -384.984 0
rfingers 7.12502 0 0
rthumb 26.419 306.868 0
2964
root -5.7666 13.2478 -28.8811 1240.68 -69.4405 -156.859
lfemur -67.7508 37.6732 -6.55268
ltibia 73.9346 0 0
lfoot -2.68446 -1.79213 0
ltoes -35.2193 0 0
rfemur -35.9907 -17.1104 24.1739
rtibia 90.5855 0 0
rfoot -39.7926 -32.5633 0
rtoes -10.8027 0 0
lowerback 16.8423 5.16144 0.686086
upperback -3.98109 7.26365 1.32311
thorax -14.0432 3.36041 -0.978636
lowerneck -2.86533 9.01345 0.975
upperneck 6.17204 11.9283 0.683991
head 2.48354 5.96805 0.433268
lclavicle -2.06996e-14 -7.32663e-15 0
lhumerus 6.45604 15.4739 80.2342
lradius 89.5482 0 0
lwrist -14.7237 0 0
lhand -38.1485 390.634 0
lfingers 7.12502 0 0
lthumb -11.1822 -659.694 0
rclavicle -2.06996e-14 -7.32663e-15 0
rhumerus -45.3815 46.2224 -99.1609
rradius 109.125 0 0
rwrist -76.5873 0 0
rhand 0.169806 -385.156 0
rfingers 7.12502 0 0
rthumb 25.7478 306.625 0
